<svg width="50" height="50" viewBox="0 0 50 50" fill="none" xmlns="http://www.w3.org/2000/svg">
<path d="M24.1543 8.94849C17.8225 11.9587 16.9404 12.1433 9.27197 13.7695C9.27197 20.5281 9.66608 22.581 10.814 27.2867C12.1545 30.8989 14.0283 34.2298 16.8196 36.6403C18.2092 38.2781 22.2619 41.0097 24.1543 41.5882C24.1543 26.3892 24.1543 18.0035 24.1543 8.94849ZM24.1543 41.5882V8.94849C24.1543 16.3773 24.1543 28.9265 24.1543 41.5882Z" fill="#FF0000"/>
<path d="M26.5219 8.94849C32.8538 11.9587 33.7359 12.1433 41.4043 13.7695C41.4043 20.5281 41.0102 22.581 39.8622 27.2867C38.5217 30.8989 36.648 34.2298 33.8567 36.6403C32.4671 38.2781 28.4144 41.0097 26.5219 41.5882C26.5219 26.3892 26.5219 18.0035 26.5219 8.94849ZM26.5219 41.5882V8.94849C26.5219 16.3773 26.5219 28.9265 26.5219 41.5882Z" fill="#080808"/>
<path d="M25.4463 2.66614C33.3864 6.53454 37.6369 7.82875 46.2383 9.54407C47.6993 26.2211 42.7745 35.6681 37.4502 41.0499C32.6041 45.9482 27.3916 47.5897 25.458 48.2365C23.4953 47.5422 17.914 45.6131 12.8018 40.5421C7.19755 34.9831 2.11005 25.5428 3.8457 9.54993C12.4855 7.83901 17.4393 6.54869 25.4463 2.66614Z" stroke="#FF0000" stroke-width="3" stroke-linecap="round" stroke-linejoin="round"/>
<mask id="mask0_559_41" style="mask-type:alpha" maskUnits="userSpaceOnUse" x="2" y="1" width="46" height="49">
<path d="M25.4463 2.66614C33.3864 6.53454 37.6369 7.82875 46.2383 9.54407C47.6993 26.2211 42.7745 35.6681 37.4502 41.0499C32.6041 45.9482 27.3916 47.5897 25.458 48.2365C23.4953 47.5422 17.914 45.6131 12.8018 40.5421C7.19755 34.9831 2.11005 25.5428 3.8457 9.54993C12.4855 7.83901 17.4393 6.54869 25.4463 2.66614Z" stroke="#FF0000" stroke-width="3" stroke-linecap="round" stroke-linejoin="round"/>
</mask>
<g mask="url(#mask0_559_41)">
<rect x="25.4189" y="-3.86536" width="35.019" height="62.5964" fill="black"/>
</g>
</svg>
